Coordinates
version=1
nRows=6
nColumns=36
inDegrees=yes

Units are S.I. units (second, meters, Newtons, ...)
If the header above contains a line with 'inDegrees', this indicates whether rotational values are in degrees (yes) or radians (no).

endheader
time	pelvis_tilt	pelvis_list	pelvis_rotation	pelvis_tx	pelvis_ty	pelvis_tz	hip_flexion_r	hip_adduction_r	hip_rotation_r	knee_angle_r	knee_angle_r_beta	ankle_angle_r	subtalar_angle_r	mtp_angle_r	hip_flexion_l	hip_adduction_l	hip_rotation_l	knee_angle_l	knee_angle_l_beta	ankle_angle_l	subtalar_angle_l	mtp_angle_l	lumbar_extension	lumbar_bending	lumbar_rotation	arm_flex_r	arm_add_r	arm_rot_r	elbow_flex_r	pro_sup_r	arm_flex_l	arm_add_l	arm_rot_l	elbow_flex_l	pro_sup_l
      0.00000000	      0.86995467	     -3.35558211	      1.46038754	     -0.94589943	      1.21224539	     -0.09084793	     -3.19866246	      3.25098620	      1.56454290	      9.10565534	      0.15892367	      4.07906735	    -18.18727173	     -5.75636483	     -2.61913672	     -5.49373100	      1.25483023	      7.84674396	      0.13695152	     14.28642181	     -6.75624520	     -5.75636483	     -3.47387433	      4.43045292	     -1.30322050	      5.64215959	     -5.52262035	     12.61648841	     23.11678118	     78.25007964	      2.15543688	     -3.85522467	     13.78489033	     26.88579539	     71.25378086
      0.00416670	     -2.13061199	     -2.38633985	      1.35119508	     -0.94218679	      1.20693004	     -0.09180096	      0.15855942	      2.51426657	      2.99318666	      8.69428986	      0.15174398	      7.45619240	    -15.67109880	     -5.80293475	      1.01288328	     -3.72132977	      1.55496647	      7.97153212	      0.13912948	     14.18298343	     -5.26626982	     -5.80293475	      1.14830748	      3.36525434	     -1.40528844	      4.26733304	     -5.04258164	     10.62818693	     23.14019662	     78.29828592	      1.20397982	     -3.45834135	     11.73702259	     26.23288534	     71.03031463
      0.00833330	     -2.65923416	     -1.32478144	      1.31951254	     -0.94219569	      1.20831828	     -0.09072610	      0.09350062	      1.26558548	      2.36859802	      7.33485253	      0.12801733	      8.14700711	    -13.70497720	     -6.01969139	      1.26733784	     -2.58516138	      0.74296099	      7.54848928	      0.13174599	     13.95427375	     -4.25001660	     -6.01969139	      2.08340822	      1.87898554	     -1.24397662	      3.72531354	     -4.19313422	      8.15432529	     23.50319719	     77.34504070	      1.12950400	     -3.83024073	     10.90730091	     26.08523773	     70.25993749
      0.01250000	     -2.10049808	     -0.69838115	      1.29674081	     -0.93993510	      1.20904883	     -0.09159688	     -1.07741322	      0.42929072	      1.94390668	      6.52487352	      0.11388053	      9.05372178	    -12.24753236	     -6.17148917	     -0.17025426	     -1.85232713	      0.55235496	      6.50342581	      0.11350619	     13.49513800	     -3.87839379	     -6.17148917	      1.59324368	      1.14711414	     -0.69706022	      3.08129938	     -3.92857365	      6.27032517	     24.18556647	     77.45878594	      1.26386307	     -4.30145860	     12.29547097	     26.07564379	     70.24237519
      0.01666670	     -1.68752464	     -0.41165294	      1.29900985	     -0.94079271	      1.21028089	     -0.09174422	     -1.99297103	      0.13336351	      2.18405370	      5.62513607	      0.09817715	      9.00620118	    -12.23263028	     -6.58429629	     -1.14078952	     -1.47905267	      0.36030065	      5.60538776	      0.09783247	     12.69291502	     -4.39104454	     -6.58429629	      1.13229030	      0.81092326	     -0.30183437	      2.74093188	     -3.94663899	      6.49453829	     24.73694811	     76.44281223	      1.65724161	     -4.62101261	     14.63955753	     26.03775379	     69.22734802
      0.02083330	     -1.30884310	     -0.30307137	      1.28604094	     -0.93873135	      1.21131066	     -0.09116332	     -2.74085605	      0.06507326	      2.50884009	      5.11422307	      0.08926003	      9.03392563	    -11.94087638	     -6.70180854	     -1.91510050	     -1.31691140	      0.63175833	      5.01466454	      0.08752241	     12.06750000	     -4.26440407	     -6.70180854	      0.79613293	      0.72036056	     -0.14354435	      2.75180319	     -3.90937708	      6.52557980	     24.67972170	     75.40597562	      1.78738847	     -4.56991489	     14.86816872	     25.79652043	     68.40975372
